HIERARCHY
ROOT Hips
{
 OFFSET 0.000000 0.000000 0.000000
 CHANNELS 6 Xposition Yposition Zposition Yrotation Xrotation Zrotation
 JOINT Chest
 {
  OFFSET 0.000000 9.585900 0.002600
  CHANNELS 3 Yrotation Xrotation Zrotation
  JOINT Chest2
  {
   OFFSET 0.000000 9.601200 -0.005300
   CHANNELS 3 Yrotation Xrotation Zrotation
   JOINT Chest3
   {
    OFFSET 0.000000 9.561800 0.000000
    CHANNELS 3 Yrotation Xrotation Zrotation
    JOINT Chest4
    {
     OFFSET 0.000000 9.552100 0.000000
     CHANNELS 3 Yrotation Xrotation Zrotation
     JOINT Neck
     {
      OFFSET 0.000000 14.453000 0.000000
      CHANNELS 3 Yrotation Xrotation Zrotation
      JOINT Head
      {
       OFFSET 0.000000 8.936500 -0.011300
       CHANNELS 3 Yrotation Xrotation Zrotation
       End Site
       {
        OFFSET 0.000000 17.073600 -0.006000
       }
      }
     }
     JOINT RightCollar
     {
      OFFSET -2.921100 9.558500 0.000000
      CHANNELS 3 Yrotation Xrotation Zrotation
      JOINT RightShoulder
      {
       OFFSET -13.519700 0.000000 0.000000
       CHANNELS 3 Yrotation Xrotation Zrotation
       JOINT RightElbow
       {
        OFFSET 0.000000 -29.696600 0.000000
        CHANNELS 3 Yrotation Xrotation Zrotation
        JOINT RightWrist
        {
         OFFSET 0.000000 -24.004700 0.000000
         CHANNELS 3 Yrotation Xrotation Zrotation
         End Site
         {
          OFFSET 0.000000 -17.728500 0.000000
         }
        }
       }
      }
     }
     JOINT LeftCollar
     {
      OFFSET 2.921100 9.558500 0.000000
      CHANNELS 3 Yrotation Xrotation Zrotation
      JOINT LeftShoulder
      {
       OFFSET 13.519700 0.000000 0.000000
       CHANNELS 3 Yrotation Xrotation Zrotation
       JOINT LeftElbow
       {
        OFFSET 0.000000 -29.696600 0.000000
        CHANNELS 3 Yrotation Xrotation Zrotation
        JOINT LeftWrist
        {
         OFFSET 0.000000 -24.004700 0.000000
         CHANNELS 3 Yrotation Xrotation Zrotation
         End Site
         {
          OFFSET 0.000000 -17.728500 0.000000
         }
        }
       }
      }
     }
    }
   }
  }
 }
 JOINT RightHip
 {
  OFFSET -7.771700 -0.012900 -0.001300
  CHANNELS 3 Yrotation Xrotation Zrotation
  JOINT RightKnee
  {
   OFFSET 0.000000 -40.869800 0.001200
   CHANNELS 3 Yrotation Xrotation Zrotation
   JOINT RightAnkle
   {
    OFFSET 0.000000 -39.717900 0.002100
    CHANNELS 3 Yrotation Xrotation Zrotation
    JOINT RightToe
    {
     OFFSET 0.000000 -4.965400 11.033500
     CHANNELS 3 Yrotation Xrotation Zrotation
     End Site
     {
      OFFSET 0.000000 -1.423100 5.872300
     }
    }
   }
  }
 }
 JOINT LeftHip
 {
  OFFSET 7.771700 -0.012900 -0.001300
  CHANNELS 3 Yrotation Xrotation Zrotation
  JOINT LeftKnee
  {
   OFFSET 0.000000 -40.869800 0.001200
   CHANNELS 3 Yrotation Xrotation Zrotation
   JOINT LeftAnkle
   {
    OFFSET 0.000000 -39.717900 0.002100
    CHANNELS 3 Yrotation Xrotation Zrotation
    JOINT LeftToe
    {
     OFFSET 0.000000 -4.965400 11.033500
     CHANNELS 3 Yrotation Xrotation Zrotation
     End Site
     {
      OFFSET 0.000000 -1.423100 5.872300
     }
    }
   }
  }
 }
}
MOTION
Frames: 15
Frame Time: 0.008333
0.000000 85.388000 0.000000 0.000000 -5.767877 0.000000 0.000000 11.653817 0.000000 0.000000 -5.885947 0.000000 0.000000 -0.000000 0.000000 0.000000 -0.000000 0.000000 0.000000 12.528835 0.000000 0.000000 0.711642 0.000000 0.000000 -0.000000 0.000000 0.000000 0.000000 -90.000000 0.000000 -2.309062 0.000000 0.000000 2.309062 0.000000 0.000000 -0.000000 0.000000 0.000000 -0.000000 90.000000 0.000000 -2.309062 0.000000 0.000000 2.309062 0.000000 0.000000 8.520406 0.000000 0.000000 1.905762 0.000000 -0.000000 -4.658285 0.000000 0.000000 -0.000000 0.000000 0.000000 8.520406 0.000000 0.000000 1.905762 0.000000 -0.000000 -4.658285 0.000000 0.000000 -0.000000 0.000000
-249.044203 57.566960 148.258083 177.485892 -28.822793 -1.360463 3.704388 21.494959 3.917800 0.412861 2.964744 0.466259 0.658455 4.785278 0.744823 3.035751 18.241205 3.328407 -0.663016 13.629627 -1.586198 -0.637825 -10.493349 -2.729909 4.078384 -1.679369 -0.311245 18.452903 -34.115351 -25.778104 161.395246 -35.956151 -149.817256 20.989750 -17.301096 -55.198078 -6.810779 -5.199315 -3.095748 -0.933345 -12.478988 -3.932356 -76.636054 -49.881724 39.205570 -16.775486 -13.257116 35.479832 8.664406 -46.473152 -5.161532 -6.841618 66.598916 -10.869945 3.138781 25.510471 5.204339 -0.898499 -16.727618 6.546124 -9.359237 -44.891854 1.153145 30.914145 66.445111 32.307426 -12.941074 6.787337 -5.253061 -0.071103 0.087789 -0.042531
-249.043873 57.567423 148.260173 177.489920 -28.813356 -1.354151 3.721200 21.502839 3.936207 0.401709 2.958329 0.457971 0.669974 4.804972 0.759025 3.027340 18.231516 3.321859 -0.633451 13.647510 -1.570814 -0.635611 -10.501032 -2.721698 4.095041 -1.668622 -0.282736 18.439274 -34.127850 -25.826007 161.880636 -35.823240 -150.147833 21.050813 -17.305263 -55.415603 -6.780665 -5.152016 -3.065077 -0.977932 -12.545522 -3.963691 -76.596273 -49.861655 39.197372 -16.773290 -13.296999 35.475854 8.666789 -46.481835 -5.175407 -6.853730 66.598347 -10.875241 3.135574 25.509490 5.196373 -0.895145 -16.725434 6.543748 -9.362337 -44.899079 1.134808 30.900152 66.428345 32.308620 -12.938020 6.803671 -5.271470 -0.067006 0.082573 -0.040526
-249.044238 57.568631 148.261074 177.489597 -28.811478 -1.340526 3.744588 21.516803 3.949279 0.388575 2.953302 0.451637 0.688319 4.823808 0.772847 3.043990 18.240980 3.333854 -0.674785 13.614796 -1.583384 -0.595661 -10.481976 -2.706183 4.063180 -1.694602 -0.284714 18.391466 -34.133547 -25.819601 162.406681 -35.616435 -150.492816 21.124303 -17.310683 -55.669326 -6.789691 -5.145949 -3.051502 -0.975723 -12.574022 -3.970280 -76.640045 -49.892026 39.209622 -16.771964 -13.301795 35.478728 8.674136 -46.484700 -5.196585 -6.851803 66.602271 -10.867695 3.135670 25.511620 5.189509 -0.894973 -16.728275 6.541352 -9.353920 -44.900552 1.108523 30.914306 66.417523 32.328290 -12.933519 6.807755 -5.274059 -0.066164 0.083417 -0.039948
-249.045042 57.570148 148.261332 177.484443 -28.812804 -1.322100 3.774390 21.531060 3.958245 0.422133 2.978190 0.471619 0.659636 4.814831 0.761855 3.126881 18.278818 3.369266 -0.689847 13.600772 -1.572017 -0.641085 -10.514014 -2.694858 3.967125 -1.754516 -0.288531 18.359347 -34.152908 -25.827623 162.906066 -35.379829 -150.819227 21.201913 -17.320250 -55.930254 -6.876418 -5.191922 -3.043575 -0.977723 -12.589823 -3.977278 -76.641850 -49.902103 39.215337 -16.774645 -13.319404 35.471212 8.697146 -46.482845 -5.226333 -6.849389 66.605806 -10.856839 3.134835 25.511669 5.185530 -0.895373 -16.729229 6.539329 -9.337952 -44.895836 1.082207 30.921899 66.407341 32.335769 -12.931148 6.805085 -5.273783 -0.066332 0.087764 -0.039907
-249.046182 57.571036 148.262355 177.488276 -28.806709 -1.307670 3.798515 21.535992 3.965272 0.407460 2.974086 0.466372 0.723479 4.848425 0.785866 3.104429 18.261768 3.362656 -0.690281 13.601181 -1.560872 -0.642108 -10.516805 -2.679792 3.935690 -1.760328 -0.257333 18.347514 -34.180605 -25.881127 163.364932 -35.126191 -151.120727 21.273742 -17.340767 -56.165002 -6.906848 -5.179733 -3.019950 -0.986392 -12.618635 -3.993597 -76.612559 -49.894148 39.223431 -16.778166 -13.363652 35.450471 8.712592 -46.488918 -5.258312 -6.842130 66.610667 -10.842249 3.135781 25.511924 5.185317 -0.896322 -16.731049 6.534589 -9.327624 -44.900616 1.054932 30.916682 66.397143 32.338228 -12.933738 6.808388 -5.283082 -0.058589 0.088719 -0.036195
-249.046297 57.571717 148.263276 177.489114 -28.799023 -1.300474 3.812101 21.533518 3.968955 0.408984 2.975416 0.466669 0.746737 4.859048 0.793015 3.125204 18.265278 3.370563 -0.734489 13.582514 -1.556845 -0.597775 -10.496910 -2.668387 3.890386 -1.773045 -0.223798 18.451828 -34.242624 -26.001153 163.711828 -34.933934 -151.357863 21.336370 -17.366981 -56.358016 -6.939018 -5.164273 -2.995302 -0.925677 -12.602808 -3.998112 -76.718405 -49.933302 39.289655 -16.788285 -13.375153 35.463723 8.713810 -46.500434 -5.277233 -6.832465 66.616146 -10.821315 3.139303 25.518016 5.176484 -0.896152 -16.737692 6.530032 -9.322574 -44.905454 1.043172 30.916132 66.384996 32.339015 -12.936051 6.813837 -5.281804 -0.056386 0.089514 -0.037157
-249.047443 57.572493 148.263142 177.493644 -28.794526 -1.292081 3.821809 21.534462 3.970029 0.429291 2.983700 0.473891 0.728843 4.853501 0.787381 3.149170 18.271522 3.378731 -0.713142 13.591866 -1.548737 -0.603774 -10.490072 -2.650530 3.879585 -1.766180 -0.169960 18.548048 -34.282278 -26.133447 163.986262 -34.714725 -151.519200 21.386891 -17.389919 -56.513205 -6.974719 -5.171553 -2.987212 -0.870503 -12.562263 -3.988634 -76.804683 -49.966892 39.357098 -16.793374 -13.390349 35.449851 8.716577 -46.505591 -5.293873 -6.834036 66.620964 -10.820348 3.142402 25.516393 5.174654 -0.896177 -16.739194 6.527281 -9.319835 -44.910570 1.027012 30.914200 66.381494 32.337816 -12.932507 6.817844 -5.281867 -0.053813 0.088204 -0.035935
-249.049555 57.572435 148.263673 177.502091 -28.780827 -1.283919 3.864140 21.540110 3.992307 0.409468 2.975324 0.467810 0.715430 4.848170 0.783878 3.143959 18.268023 3.378473 -0.633645 13.631110 -1.537165 -0.642573 -10.484702 -2.627300 3.874903 -1.766006 -0.158329 18.598587 -34.301420 -26.183729 164.212107 -34.495258 -151.606915 21.420062 -17.401040 -56.624799 -6.973043 -5.139790 -2.965246 -0.858687 -12.577409 -4.004496 -76.841516 -49.981157 39.386572 -16.797802 -13.393357 35.448917 8.716555 -46.518441 -5.313161 -6.836078 66.624629 -10.822835 3.146535 25.511696 5.176117 -0.895206 -16.737738 6.522601 -9.315075 -44.924305 1.010129 30.915467 66.373750 32.339108 -12.940195 6.820797 -5.282718 -0.049306 0.089715 -0.032799
-249.051359 57.572624 148.262978 177.506558 -28.770938 -1.279217 3.868690 21.534801 3.992132 0.425344 2.982694 0.471781 0.719798 4.849420 0.784851 3.160936 18.268188 3.383414 -0.666420 13.621287 -1.530597 -0.603648 -10.417346 -2.609389 3.837789 -1.777163 -0.143925 18.749596 -34.346734 -26.311394 164.305739 -34.396353 -151.625679 21.441022 -17.397650 -56.683445 -7.007089 -5.118645 -2.935623 -0.847642 -12.590485 -4.021316 -76.866011 -49.981643 39.424080 -16.805956 -13.404326 35.452597 8.708115 -46.526999 -5.319118 -6.831564 66.625925 -10.823523 3.150266 25.508005 5.178778 -0.895038 -16.736630 6.517753 -9.303164 -44.934825 0.992592 30.916143 66.368662 32.345967 -12.944806 6.823920 -5.281233 -0.048020 0.089031 -0.032647
-249.054972 57.573082 148.260933 177.505339 -28.764784 -1.263801 3.873900 21.532841 3.983312 0.436663 2.986448 0.476322 0.722707 4.849323 0.786046 3.172473 18.266363 3.389084 -0.659592 13.644683 -1.520970 -0.596756 -10.345898 -2.587093 3.833761 -1.763338 -0.113795 18.904290 -34.396957 -26.488135 164.327896 -34.381467 -151.584553 21.469786 -17.382093 -56.714536 -7.036942 -5.091710 -2.919635 -0.814057 -12.575187 -4.025908 -76.948796 -49.992207 39.502262 -16.805895 -13.407803 35.461594 8.704959 -46.530746 -5.330045 -6.814750 66.626478 -10.818837 3.149897 25.507580 5.175815 -0.900407 -16.737283 6.520954 -9.285053 -44.943264 0.971286 30.914068 66.374076 32.329451 -12.931820 6.823880 -5.252806 -0.064573 0.089230 -0.039701
-249.057255 57.573726 148.258116 177.508874 -28.759646 -1.260405 3.879824 21.532968 3.991463 0.437126 2.985637 0.476731 0.723404 4.847923 0.787002 3.176351 18.263388 3.393364 -0.624052 13.723319 -1.487535 -0.603138 -10.300523 -2.583802 3.840972 -1.747175 -0.100778 19.030049 -34.432323 -26.638015 164.301404 -34.443803 -151.481254 21.522432 -17.354872 -56.758325 -7.058866 -5.049020 -2.904215 -0.764989 -12.535691 -4.033207 -77.092606 -50.016881 39.646130 -16.823171 -13.407173 35.481133 8.695739 -46.534682 -5.331025 -6.825402 66.630023 -10.832680 3.147436 25.501473 5.165773 -0.897984 -16.735585 6.525035 -9.280207 -44.950683 0.960670 30.913281 66.376963 32.327485 -12.926005 6.830497 -5.247335 -0.068554 0.083837 -0.037555
-249.059240 57.574237 148.255154 177.513184 -28.751586 -1.259656 3.877487 21.532178 4.005485 0.436211 2.980676 0.469382 0.723168 4.845544 0.787618 3.175687 18.259005 3.396855 -0.620674 13.750229 -1.486628 -0.574642 -10.186163 -2.552235 3.853537 -1.726598 -0.096262 19.157282 -34.461628 -26.781467 164.222801 -34.609373 -151.328975 21.594543 -17.312532 -56.822693 -7.062675 -5.029567 -2.908494 -0.759944 -12.534282 -4.037528 -77.122034 -50.002648 39.688873 -16.816157 -13.420923 35.482594 8.683064 -46.541290 -5.328924 -6.838505 66.632514 -10.848997 3.149898 25.493640 5.155838 -0.899867 -16.732473 6.530570 -9.282553 -44.960524 0.957957 30.910632 66.380809 32.321189 -12.921198 6.834703 -5.244830 -0.066840 0.081038 -0.033929
-249.060152 57.575191 148.251189 177.516792 -28.747774 -1.263795 3.875236 21.529363 4.010442 0.436520 2.982689 0.477976 0.722506 4.843523 0.788935 3.174866 18.255397 3.402032 -0.617841 13.776776 -1.489348 -0.552396 -10.070653 -2.512691 3.863172 -1.703168 -0.100220 19.268704 -34.491895 -26.907501 164.099803 -34.870446 -151.134020 21.674405 -17.246118 -56.882327 -7.064254 -5.021273 -2.922190 -0.761514 -12.527703 -4.037844 -77.135610 -49.989243 39.717967 -16.824914 -13.420320 35.499029 8.630120 -46.544000 -5.286106 -6.830133 66.634471 -10.872080 3.142185 25.479774 5.144642 -0.897649 -16.724703 6.537119 -9.287680 -44.964629 0.962195 30.919112 66.389450 32.323079 -12.913584 6.826619 -5.236693 -0.072833 0.084268 -0.032393
-249.060136 57.576493 148.246468 177.514539 -28.747801 -1.268307 3.879298 21.530685 4.025233 0.435905 2.982355 0.479301 0.721409 4.843085 0.791022 3.171870 18.254134 3.409921 -0.605910 13.825542 -1.476008 -0.538718 -9.977171 -2.482364 3.868559 -1.678202 -0.109960 19.354400 -34.523817 -27.002523 163.904034 -35.206132 -150.878043 21.752886 -17.138817 -56.903386 -7.061618 -5.015540 -2.939593 -0.784226 -12.515692 -4.031071 -77.133979 -49.975600 39.754498 -16.835658 -13.420136 35.507812 8.607373 -46.543520 -5.259688 -6.840432 66.637171 -10.895472 3.138735 25.469674 5.139230 -0.897318 -16.720165 6.540993 -9.279548 -44.959424 0.975984 30.904813 66.398328 32.304185 -12.928076 6.809079 -5.235942 -0.061397 0.093739 -0.024604
